<?xml version="1.0" encoding="UTF-8"?>
<svg id="_Слой_2" data-name="Слой 2" xmlns="http://www.w3.org/2000/svg" viewBox="0 0 338.03 689.61">
  <defs>
    <style>
      .cls-1 {
        fill: #fff;
      }

      .cls-2 {
        fill: #0d7bff;
      }
    </style>
  </defs>
  <g id="_Слой_1-2" data-name="Слой 1">
    <g>
      <g>
        <polygon class="cls-2" points="338.03 0 0 523.2 338.03 159.01 338.03 0"/>
        <polygon class="cls-2" points="185.73 493.35 338.03 413.14 338.03 218.88 0 523.2 185.73 435.53 185.73 493.35"/>
      </g>
      <g>
        <path class="cls-1" d="m39.63,590.67L0,689.61h18.4l8.92-22.79h41.9l9.06,22.79h18.26l-39.49-98.95h-17.41Zm-7.36,61.29l16-42.04,16,42.04h-31.99Z"/>
        <polygon class="cls-1" points="194.49 590.67 173.97 590.67 148.35 625.63 122.87 590.67 102.34 590.67 138.16 639.64 101.49 689.61 122.02 689.61 148.35 653.66 174.68 689.61 195.2 689.61 158.68 639.64 194.49 590.67"/>
        <rect class="cls-1" x="209.35" y="590.67" width="17.98" height="98.95"/>
        <path class="cls-1" d="m298.53,590.67h-17.41l-39.63,98.95h18.4l8.92-22.79h41.9l9.06,22.79h18.26l-39.49-98.95Zm-24.77,61.29l16-42.04,16,42.04h-31.99Z"/>
      </g>
    </g>
  </g>
</svg>